<?xml version="1.0" encoding="utf-8"?>
<!-- Generator: Adobe Illustrator 18.1.0, SVG Export Plug-In . SVG Version: 6.00 Build 0)  -->
<svg version="1.1" xmlns="http://www.w3.org/2000/svg" xmlns:xlink="http://www.w3.org/1999/xlink" x="0px" y="0px"
	 viewBox="700 0 1000 1000" enable-background="new 700 0 1000 1000" xml:space="preserve">
<g id="Layer_2">
</g>
<g id="Layer_1">
	<circle fill="none" cx="1200" cy="500" r="500"/>
	<g>
		<g>
			<path fill="#514848" d="M1200,489c-16,0-29-13-29-29V260c0-16,13-29,29-29c16,0,29,13,29,29v200C1229,476,1216,489,1200,489z"/>
			<path fill="#302A1A" d="M1200,242c9.9,0,18,8.1,18,18v200c0,9.9-8.1,18-18,18s-18-8.1-18-18V260C1182,250.1,1190.1,242,1200,242
				 M1200,220c-22,0-40,18-40,40v200c0,22,18,40,40,40s40-18,40-40V260C1240,238,1222,220,1200,220L1200,220z"/>
		</g>
	</g>
</g>
</svg>
